<svg xmlns="http://www.w3.org/2000/svg" width="280" height="280" viewBox="0 0 280 280">
  <g fill="none" stroke="#C6A46C" stroke-width="0.6" opacity="0.12">
    <!-- T-square / ruler -->
    <g transform="translate(20,20)">
      <line x1="0" y1="0" x2="18" y2="0"/>
      <line x1="0" y1="0" x2="0" y2="14"/>
    </g>
    <!-- Set square / triangle -->
    <g transform="translate(90,30)">
      <path d="M0 16L8 0L16 16Z"/>
    </g>
    <!-- Compass -->
    <g transform="translate(170,18)">
      <circle cx="6" cy="3" r="2"/>
      <line x1="6" y1="5" x2="1" y2="16"/>
      <line x1="6" y1="5" x2="11" y2="16"/>
    </g>
    <!-- Window frame -->
    <g transform="translate(240,25)">
      <rect x="0" y="0" width="14" height="14" rx="1"/>
      <line x1="7" y1="0" x2="7" y2="14"/>
      <line x1="0" y1="7" x2="14" y2="7"/>
    </g>
    <!-- Floor plan / room layout -->
    <g transform="translate(30,80)">
      <rect x="0" y="0" width="18" height="14"/>
      <line x1="10" y1="0" x2="10" y2="8"/>
      <line x1="10" y1="8" x2="18" y2="8"/>
    </g>
    <!-- Pendant light -->
    <g transform="translate(110,75)">
      <line x1="7" y1="0" x2="7" y2="6"/>
      <path d="M2 6Q7 16 12 6"/>
    </g>
    <!-- Sofa / couch -->
    <g transform="translate(190,80)">
      <path d="M0 10V4h16v6"/>
      <path d="M0 10h16"/>
      <line x1="2" y1="4" x2="2" y2="2"/>
      <line x1="14" y1="4" x2="14" y2="2"/>
    </g>
    <!-- Column / pillar -->
    <g transform="translate(255,78)">
      <rect x="2" y="3" width="8" height="14"/>
      <line x1="0" y1="3" x2="12" y2="3"/>
      <line x1="0" y1="17" x2="12" y2="17"/>
    </g>
    <!-- Arch / doorway -->
    <g transform="translate(50,140)">
      <path d="M0 16V6A7 7 0 0114 6v10"/>
    </g>
    <!-- Pencil -->
    <g transform="translate(130,138)">
      <line x1="0" y1="16" x2="12" y2="0"/>
      <line x1="10" y1="2" x2="14" y2="4"/>
      <line x1="0" y1="16" x2="2" y2="14"/>
    </g>
    <!-- Chair / Eames -->
    <g transform="translate(200,140)">
      <path d="M2 0C2 6 12 6 12 0"/>
      <line x1="7" y1="6" x2="7" y2="12"/>
      <line x1="2" y1="12" x2="12" y2="12"/>
      <line x1="3" y1="12" x2="1" y2="16"/>
      <line x1="11" y1="12" x2="13" y2="16"/>
    </g>
    <!-- Brick pattern -->
    <g transform="translate(18,200)">
      <rect x="0" y="0" width="8" height="5"/>
      <rect x="9" y="0" width="8" height="5"/>
      <rect x="4" y="6" width="8" height="5"/>
    </g>
    <!-- Plant / leaf -->
    <g transform="translate(100,195)">
      <path d="M7 16V8"/>
      <path d="M7 8C7 2 14 0 14 6C14 10 7 8 7 8"/>
      <path d="M7 10C7 5 0 3 0 8C0 12 7 10 7 10"/>
    </g>
    <!-- Door -->
    <g transform="translate(175,200)">
      <rect x="0" y="0" width="12" height="16"/>
      <circle cx="10" cy="9" r="1"/>
    </g>
    <!-- Angle bracket / steel beam -->
    <g transform="translate(245,198)">
      <path d="M0 0V16H16"/>
      <path d="M3 0V13H16"/>
    </g>
    <!-- Drafting circle -->
    <g transform="translate(60,250)">
      <circle cx="7" cy="7" r="7"/>
      <line x1="7" y1="0" x2="7" y2="14"/>
      <line x1="0" y1="7" x2="14" y2="7"/>
    </g>
    <!-- Staircase -->
    <g transform="translate(145,248)">
      <path d="M0 14H4V10H8V6H12V2H16"/>
    </g>
    <!-- Roofline / gable -->
    <g transform="translate(225,252)">
      <path d="M0 12L8 2L16 12"/>
      <line x1="3" y1="12" x2="13" y2="12"/>
    </g>
  </g>
</svg>
